# xmcd
#
# Track frame offsets:
#	151
#	17669
#	38637
#	53172
#	67245
#	84738
#	106251
#	120920
#	137321
#	154043
#	173033
#	190157
#	204991
#
# Disc length: 3016 seconds
#
# Revision: 0
# Processed by: cddbd v1.5.1PL2 Copyright (c) Steve Scherf et al.
# Submitted via: audiograbber 1.83.01
#
DISCID=a00bc60d
DTITLE=басикгс паитеягс  - диалаятуяолаи
DYEAR=2001
DGENRE=каийа
TTITLE0=басикгс паитеягс  - дем ха пехамы ецы циа сема 
TTITLE1=басикгс паитеягс  - тоса басама 
TTITLE2=басикгс паитеягс  - диалаятуяолаи
TTITLE3=басикгс паитеягс  - та жукавта 
TTITLE4=басикгс паитеягс  - йаи есу ма тяевеис ма цуямас 
TTITLE5=басикгс паитеягс  - мохеулемг досг 
TTITLE6=басикгс паитеягс  - йкеисале 
TTITLE7=басикгс паитеягс  - жымес 
TTITLE8=басикгс паитеягс  - тсациояи   (еМАР АКчТГР ЙАИЯЭР) 
TTITLE9=басикгс паитеягс  - лета апо сема 
TTITLE10=басикгс паитеягс  - ха соу ояйисты 
TTITLE11=басикгс паитеягс  - диахгйг 
TTITLE12=басикгс паитеягс  and екемг битакг - идиос о дяолос  
EXTD=
EXTT0=
EXTT1=
EXTT2=
EXTT3=
EXTT4=
EXTT5=
EXTT6=
EXTT7=
EXTT8=
EXTT9=
EXTT10=
EXTT11=
EXTT12=
PLAYORDER=
